<svg width="70" height="70" viewBox="0 0 70 70" fill="none" xmlns="http://www.w3.org/2000/svg">
<g clip-path="url(#clip0_278_281)">
<path fill-rule="evenodd" clip-rule="evenodd" d="M35.7505 3.5C35.7505 3.08579 35.4147 2.75 35.0005 2.75C34.5863 2.75 34.2505 3.08579 34.2505 3.5V7.4193C34.0299 7.42335 33.8108 7.43216 33.5941 7.44615C32.2424 7.53342 30.9111 7.82614 29.8574 8.48244C28.771 9.15913 28.0112 10.2063 27.836 11.6816C27.6871 12.935 27.8302 13.9926 28.2409 14.8791C28.6525 15.7676 29.3051 16.4241 30.0746 16.9196C31.5703 17.8826 33.6077 18.29 35.4245 18.6467L35.5915 18.6794C36.4662 18.8509 37.2981 19.014 38.0598 19.2198C38.8713 19.4392 39.5521 19.6944 40.0755 20.0241C40.588 20.3468 40.9267 20.7258 41.1048 21.1998C41.2857 21.6809 41.3341 22.3476 41.1006 23.3011C40.878 24.2101 40.2511 24.8682 39.2795 25.3281C38.2914 25.7959 36.994 26.0306 35.5801 26.0754C32.7341 26.1654 29.7043 25.4811 28.3502 24.7675C27.9837 24.5744 27.5301 24.7149 27.337 25.0814C27.1439 25.4478 27.2844 25.9014 27.6509 26.0945C29.0476 26.8306 31.6436 27.4537 34.2505 27.5655V31.5C34.2505 31.9142 34.5863 32.25 35.0005 32.25C35.4147 32.25 35.7505 31.9142 35.7505 31.5V27.5703C37.2329 27.5125 38.7096 27.2574 39.9213 26.6839C41.1829 26.0867 42.1999 25.1185 42.5576 23.6578C42.8394 22.5067 42.8262 21.516 42.5089 20.672C42.189 19.8209 41.5931 19.2072 40.875 18.7548C40.1677 18.3094 39.3219 18.0071 38.4512 17.7718C37.6362 17.5515 36.7548 17.3788 35.8945 17.2103L35.8945 17.2102L35.7134 17.1747C33.8241 16.8039 32.0948 16.4362 30.8866 15.6584C30.3042 15.2834 29.8705 14.8281 29.602 14.2485C29.3326 13.667 29.2018 12.9004 29.3255 11.8585C29.4435 10.8652 29.9244 10.2079 30.6505 9.75566C31.4093 9.28303 32.4623 9.02235 33.6907 8.94304C36.1456 8.78455 39.0171 9.36663 40.8164 9.9718C41.209 10.1038 41.6343 9.89263 41.7663 9.50002C41.8984 9.10742 41.6872 8.68211 41.2946 8.55006C39.8717 8.07149 37.8185 7.60087 35.7505 7.45947V3.5Z" fill="url(#paint0_linear_278_281)"/>
<path d="M22.9629 50.418H42.6369C43.1892 50.418 43.6392 49.9683 43.6103 49.4168C43.0732 39.1637 34.0934 43.8073 28.6009 41.584C21.737 38.8056 16.2071 36.9682 12.3133 38.434C8.77327 39.7666 5.52045 43.3972 3.32186 45.8628C3.07295 46.1419 3.00028 46.5362 3.13338 46.8857L8.93584 62.1226C9.08352 62.5104 9.45016 62.7668 9.86514 62.7691C13.0902 62.7869 27.0457 62.9338 37.2279 64.1495C37.3239 64.1609 37.4185 64.1587 37.5138 64.1421C49.1008 62.1241 62.9664 55.2621 66.6551 52.3929C66.7648 52.3076 66.8494 52.2043 66.9004 52.0749C67.9063 49.5223 64.753 43.9373 57.7305 46.6667C50.5264 49.4667 52.3431 49.3267 47.081 51.5667C42.1442 53.6682 36.4881 52.7507 34.8592 51.7622C34.6746 51.6502 34.4748 51.5552 34.2599 51.534L22.9629 50.418Z" fill="url(#paint1_linear_278_281)" fill-opacity="0.1" stroke="url(#paint2_linear_278_281)" stroke-width="1.5" stroke-linejoin="round"/>
</g>
<defs>
<linearGradient id="paint0_linear_278_281" x1="27.1883" y1="2.83427" x2="48.8733" y2="8.34416" gradientUnits="userSpaceOnUse">
<stop stop-color="#CC00FF"/>
<stop offset="1" stop-color="#8F00FF"/>
</linearGradient>
<linearGradient id="paint1_linear_278_281" x1="2.66008" y1="37.9917" x2="42.5268" y2="85.0935" gradientUnits="userSpaceOnUse">
<stop stop-color="#CC00FF"/>
<stop offset="1" stop-color="#8F00FF"/>
</linearGradient>
<linearGradient id="paint2_linear_278_281" x1="2.66008" y1="37.9917" x2="42.5268" y2="85.0935" gradientUnits="userSpaceOnUse">
<stop stop-color="#CC00FF"/>
<stop offset="1" stop-color="#8F00FF"/>
</linearGradient>
<clipPath id="clip0_278_281">
<rect width="70" height="70" fill="white"/>
</clipPath>
</defs>
</svg>
